<svg xmlns="http://www.w3.org/2000/svg" width="43" height="43" fill="none" viewBox="0 0 43 43">
  <path fill="#FFC800" fill-rule="evenodd" d="m8.959 13.069 3.924 3.098a.67.67 0 0 0 .913-.078l5.9-6.589a2.676 2.676 0 0 1 3.926-.066l6.386 6.668a.669.669 0 0 0 .916.048l3.635-3.081a1.723 1.723 0 0 1 2.784 1.74l-4.375 17.173a2.112 2.112 0 0 1-2.046 1.59H12.294a2.112 2.112 0 0 1-2.046-1.59L5.93 15.035a1.906 1.906 0 0 1 3.028-1.966Z" clip-rule="evenodd"/>
  <path fill="#FFDE00" fill-rule="evenodd" d="m11.384 17.4 1.245 1.137a1.056 1.056 0 0 0 1.54-.123l3.096-3.9a1.338 1.338 0 0 1 2.382.732l1.098 14.725a1.338 1.338 0 0 1-1.334 1.437h-5.19a1.338 1.338 0 0 1-1.3-1.022L9.97 18.236a.86.86 0 0 1 1.414-.837Z" clip-rule="evenodd"/>
</svg>
