<svg xmlns="http://www.w3.org/2000/svg" width="185" height="163" fill="none" viewBox="0 0 185 163">
  <g clip-path="url(#a)">
    <mask id="b" width="104" height="89" x="77" y="3" maskUnits="userSpaceOnUse" style="mask-type:alpha">
      <path fill="#fff" d="M180.773 3.695H77.527v87.553h103.246V3.695Z"/>
    </mask>
    <g mask="url(#b)">
      <path fill="#F7F7F7" d="M173.803-2.64H84.497a6.97 6.97 0 0 0-6.97 6.969v73.614a6.97 6.97 0 0 0 6.97 6.97h89.306a6.97 6.97 0 0 0 6.97-6.97V4.329a6.97 6.97 0 0 0-6.97-6.97Z"/>
      <path stroke="#B5E2F7" stroke-linecap="round" stroke-linejoin="round" stroke-width="1.945" d="M102.859 70.85c41.465 0 51.886-33.424 56.486-48.53"/>
      <path fill="#B5E2F7" fill-rule="evenodd" d="M155.886 23.199a.778.778 0 0 1-.345-1.306l4.519-4.45a.78.78 0 0 1 1.298.347l1.685 6.11a.779.779 0 0 1-.953.958" clip-rule="evenodd"/>
      <path fill="#E5E5E5" d="M96.125 74h70.521a.78.78 0 1 1 0 1.557h-71.3a.779.779 0 0 1-.78-.778V15.192a.779.779 0 0 1 1.559 0V74Z"/>
    </g>
    <path fill="#1CB0F6" d="M181.495 0H77.081a3.505 3.505 0 0 0-3.507 3.502v.778a3.505 3.505 0 0 0 3.507 3.502h104.414a3.504 3.504 0 0 0 3.506-3.502v-.778A3.504 3.504 0 0 0 181.495 0Z"/>
    <path fill="#F49000" d="M47.247 132.013a3.45 3.45 0 0 0-3.463-3.458h-5.415c-1.889 0-3.463 1.572-3.463 3.458a3.45 3.45 0 0 0 3.463 3.459h5.415c1.889.063 3.463-1.509 3.463-3.459Zm14.043 3.458c1.7 0 3.148-1.194 3.4-2.893.315-1.886-.945-3.71-2.833-4.024-.378-.063-.882-.503-1.449-1.195-1.196-1.509-3.337-1.823-4.91-.629-1.512 1.195-1.826 3.333-.63 4.905 1.7 2.138 3.652 3.459 5.792 3.773.252.063.441.063.63.063Z"/>
    <path fill="#4B4B4B" d="m5.192 111.892 24.177-32.197c1.322-1.698 3.904-1.698 5.163.063 5.981 8.49 5.792 19.997-.63 28.55-6.422 8.552-17.44 11.885-27.262 8.489-2.015-.692-2.77-3.144-1.448-4.905Z"/>
    <path fill="#58CC02" fill-rule="evenodd" d="m6.953 109.5 6.485 8.552c-2.266-.063-4.533-.503-6.8-1.257-2.014-.692-2.77-3.208-1.51-4.906l1.825-2.389Z" clip-rule="evenodd"/>
    <path fill="#4B4B4B" d="m46.87 94.662 34.818-20.5a3.15 3.15 0 0 1 4.722 2.074c2.267 10.125-2.329 20.752-11.522 26.223-9.192 5.471-20.714 4.339-28.521-2.578-1.637-1.51-1.385-4.088.504-5.22Z"/>
    <path stroke="#A56644" stroke-linecap="round" stroke-width="2.007" d="m78.387 81.918 29.389-33.707"/>
    <path fill="#58CC02" d="M52.285 58.691c-6.233 4.402-10.64 6.855-13.222 7.421-2.519.566-7.493.063-14.859-1.384-4.911-.943-9.633 2.202-10.578 7.106a8.596 8.596 0 0 0 0 3.585l5.856 27.48c3.085 14.527 17.377 23.834 31.922 20.752 14.544-3.081 23.8-17.356 20.714-31.945l-5.856-27.543c-1.007-4.905-5.855-7.987-10.703-6.98-1.196.314-2.267.754-3.274 1.508Z"/>
    <path fill="#89E219" d="m34.28 72.401-7.997-5.848c-.504-.377-1.26-.126-1.448.44-.504 1.51-.44 3.081.063 4.528l-2.707-1.887c-.504-.377-1.26-.126-1.449.44-.44 1.447-.44 3.02 0 4.402-2.203 2.453-3.21 5.849-2.518 9.37l1.196 5.47c1.196 5.724 6.863 9.434 12.593 8.176l.251-.063c4.219-.88 7.304-4.213 8.185-8.175.82-.189 2.015-.44 3.59-.755.692-.125 1.825-.377 3.4-.691 2.392 3.27 6.547 5.03 10.766 4.15l.314-.063c5.73-1.194 9.382-6.854 8.186-12.577l-1.197-5.47a10.647 10.647 0 0 0-6.17-7.547c-.189-1.446-.755-2.892-1.763-3.961-.44-.503-1.196-.378-1.511.188l-1.7 2.893c-.126-1.509-.755-3.019-1.763-4.15-.44-.503-1.007-.44-1.322.126l-5.415 9.18c-.063.064-.063.126-.126.189-2.33 3.27-7.24 4.214-10.955 2.075-.189-.251-.315-.314-.504-.44Z"/>
    <path fill="#fff" d="M53.167 69.443c-3.966.817-6.547 4.78-5.666 8.74l.944 4.34a7.325 7.325 0 0 0 8.69 5.785c3.966-.817 6.547-4.779 5.666-8.74l-.945-4.34a7.325 7.325 0 0 0-8.689-5.785Z"/>
    <path fill="#4B4B4B" d="M53.043 74.474c-1.89.377-3.086 2.264-2.708 4.15l.819 3.71c.377 1.887 2.266 3.082 4.155 2.704 1.889-.377 3.085-2.263 2.708-4.15l-.82-3.71c-.44-1.95-2.266-3.144-4.154-2.704Z"/>
    <path fill="#fff" d="M51.013 79.48a2.265 2.265 0 0 1-2.267-2.263 2.265 2.265 0 0 1 2.267-2.264 2.265 2.265 0 0 1 2.267 2.264 2.265 2.265 0 0 1-2.267 2.264Zm-23.217-4.628c-3.966.818-6.548 4.78-5.666 8.741l.944 4.34c.882 4.024 4.785 6.539 8.752 5.722 3.967-.818 6.548-4.78 5.666-8.741l-.944-4.34c-.881-4.024-4.785-6.602-8.752-5.722Z"/>
    <path fill="#4B4B4B" d="M29.937 79.38c-1.889.378-3.085 2.264-2.707 4.15l.818 3.71c.378 1.887 2.267 3.082 4.156 2.705 1.889-.377 3.085-2.264 2.707-4.15l-.818-3.71c-.441-1.95-2.267-3.145-4.156-2.705Z"/>
    <path fill="#fff" d="M27.978 84.332a2.265 2.265 0 0 1-2.267-2.263 2.265 2.265 0 0 1 2.267-2.264 2.265 2.265 0 0 1 2.266 2.264 2.265 2.265 0 0 1-2.266 2.263Z"/>
    <path fill="#8EE000" d="M56.377 90.013c1.763-1.133 3.904-2.139 6.548-2.956a2.882 2.882 0 0 0 1.952-3.459l-1.196-4.59c-5.981 1.509-10.704 3.773-13.978 6.666l3.526 3.961c.756.943 2.141 1.07 3.148.378Zm-20.081 3.83 1.763-5.66c-4.218-1.32-9.444-1.446-15.489-.44l.945 5.409c.189 1.131 1.259 1.886 2.392 1.76 3.274-.44 6.108-.377 8.5.126a1.72 1.72 0 0 0 1.889-1.195Z"/>
    <path fill="#F49000" d="M42.59 82.53c-2.014.44-3.337 2.453-2.896 4.465l.252 1.195c.44 2.012 2.456 3.332 4.47 2.892 2.015-.44 3.337-2.452 2.897-4.464l-.252-1.195c-.44-2.013-2.456-3.333-4.47-2.893Z"/>
    <path fill="#FFC200" d="M48.572 85.353c-.945-2.202-3.463-3.396-5.982-2.83-2.392.503-4.155 2.64-4.092 4.968l.063.188c.063.189.126.189.252.189l4.91-.189c.127 0 .127 0 .19-.063l4.596-1.823c.189 0 .189-.063.189-.252l-.126-.188Z"/>
    <path fill="#FFDE00" d="M41.897 85.169c.126 0 .251-.063.377-.126.567-.377 1.134-.503 1.763-.377.441.063.819-.189.882-.629.063-.44-.189-.818-.63-.88-.944-.189-1.889 0-2.77.566-.378.188-.44.691-.252 1.006.126.314.378.44.63.44Z"/>
    <path fill="#fff" d="m69.613 88.008 3.141 14.762-49.882 10.589-3.142-14.761 49.883-10.59Z"/>
    <path fill="#4B4B4B" fill-rule="evenodd" d="m48.696 92.46-7.997 1.699a2.54 2.54 0 0 0 2.96 1.95l3.085-.63c1.385-.314 2.203-1.635 1.952-3.018Z" clip-rule="evenodd"/>
    <path fill="#4B4B4B" fill-rule="evenodd" d="m46.368 93.594-3.085.629-.566 5.785c-.19 1.886 1.196 3.584 3.147 3.773.378.063.693 0 1.07-.063 1.89-.377 3.086-2.264 2.645-4.088a3.271 3.271 0 0 0-.378-1.006l-2.833-5.03Z" clip-rule="evenodd"/>
    <path fill="#4B4B4B" fill-rule="evenodd" d="m70.355 80.83-23.611 20.688-28.774-6.037c-.314-.063-.692.126-.755.503v.252l3.904 26.222c.188 1.384 1.51 2.327 2.833 2.138h.126l48.417-9.81c1.26-.251 2.141-1.446 2.015-2.704l-3.085-30.813c-.063-.314-.315-.628-.693-.566-.126 0-.251.063-.377.126Z" clip-rule="evenodd"/>
    <path fill="#1899D6" fill-rule="evenodd" d="m67.65 103.781-8.311 1.321h-.19a1.262 1.262 0 0 1-1.258-1.258l.252-12.262 10.892-9.559c0 .063.063.126.063.19l-.315 20.311a1.403 1.403 0 0 1-1.133 1.257Zm-35.951 8.175c0 .628-.504 1.132-1.134 1.194l-8.059.818c-.692.063-1.322-.44-1.385-1.132v-.126l.252-16.538 10.64 2.2-.314 13.584Z" clip-rule="evenodd"/>
    <path fill="#4B4B4B" fill-rule="evenodd" d="m42.065 47.666-12.34 2.64a.653.653 0 0 0-.504.756l3.4 15.972a.653.653 0 0 0 .755.503l12.34-2.641a.652.652 0 0 0 .505-.754l-3.4-15.973a.653.653 0 0 0-.756-.503Z" clip-rule="evenodd"/>
    <path fill="#FFD900" fill-rule="evenodd" d="m35.075 46.598-8.94 1.886c-.504.126-.819.63-.756 1.132.126.504.63.818 1.133.755l8.941-1.887c.504-.126.819-.628.755-1.132-.063-.565-.566-.88-1.133-.754Z" clip-rule="evenodd"/>
    <path fill="#4B4B4B" fill-rule="evenodd" d="m48.927 44.958-27.074 5.723c-.882.188-1.385 1.006-1.196 1.886.189.88 1.007 1.384 1.889 1.195l27.073-5.722c.882-.189 1.385-1.007 1.196-1.887-.188-.817-1.07-1.383-1.888-1.195Z" clip-rule="evenodd"/>
    <path fill="#4B4B4B" fill-rule="evenodd" d="M34.697 44.774c-.882.188-1.386 1.006-1.197 1.886l.252 1.258c.19.88 1.008 1.384 1.89 1.195.88-.189 1.384-1.006 1.195-1.887l-.251-1.257c-.19-.88-1.008-1.384-1.89-1.195Z" clip-rule="evenodd"/>
    <path fill="#FFD900" fill-rule="evenodd" d="M25.956 53.192a3.19 3.19 0 0 0-4.243 1.34l-2.256 4.488a.653.653 0 0 0 .27.866l4.487 2.259a.652.652 0 0 0 .866-.27l2.257-4.488c.735-1.509.176-3.42-1.381-4.195Z" clip-rule="evenodd"/>
    <path fill="#FFC800" d="m23.598 61.895-1.137-.596 1.373-2.693c.15-.284.534-.458.867-.27.284.15.459.533.27.866l-1.373 2.693Zm-2.793-1.452 2.526-4.915c.15-.284.534-.458.867-.27.285.15.46.533.27.866l-2.526 4.915-1.137-.596Z"/>
    <path fill="#FFD900" fill-rule="evenodd" d="m27.332 49.36-1.889-.188-1.322 5.471 1.826.44 1.385-5.722Z" clip-rule="evenodd"/>
    <path fill="#FFD900" d="M18.641 58.045c1.449 0 2.77-.88 3.967-2.578.189-.315.126-.692-.126-.88-.315-.19-.693-.127-.881.125-.945 1.383-1.952 2.075-2.96 2.075-.377 0-.63.252-.63.63a.63.63 0 0 0 .63.628Z"/>
    <path fill="#58CC02" fill-rule="evenodd" d="m85.806 71.806-2.872-.086a2.232 2.232 0 0 0-2.304 2.155c-.007.244.025.487.098.72l2.311 7.467a2.087 2.087 0 0 0 2.605 1.37A2.073 2.073 0 0 0 87.1 81.69l.86-7.407a2.227 2.227 0 0 0-2.155-2.477Z" clip-rule="evenodd"/>
    <path fill="#E5E5E5" d="M84.114 157.203h-61.21a2.412 2.412 0 0 0 0 4.823h61.21a2.412 2.412 0 0 0 0-4.823Z"/>
    <path fill="#A560E8" d="M20.492 148.058v6.376a2.77 2.77 0 0 1-2.77 2.769h-34.836a2.77 2.77 0 0 1-2.77-2.769v-6.376a2.77 2.77 0 0 1 2.77-2.769h34.837a2.77 2.77 0 0 1 2.77 2.769Z"/>
    <mask id="c" width="41" height="13" x="34" y="135" maskUnits="userSpaceOnUse" style="mask-type:alpha">
      <path fill="#fff" d="M74.879 138.3v6.376a2.77 2.77 0 0 1-2.77 2.769H37.274a2.77 2.77 0 0 1-2.77-2.769V138.3a2.77 2.77 0 0 1 2.77-2.769H72.11a2.77 2.77 0 0 1 2.769 2.769Z"/>
    </mask>
    <g mask="url(#c)">
      <path fill="#B77FEC" d="M46.207 141.032a.687.687 0 1 1 0 1.374h-8.26a.687.687 0 1 1 0-1.374h8.26Zm4.586 0a.687.687 0 1 1 0 1.374h-1.837a.687.687 0 1 1 0-1.374h1.837Zm19.27 0a.687.687 0 1 1 0 1.374h-5.049a.687.687 0 1 1 0-1.374h5.049Z"/>
    </g>
    <path fill="#00A0F5" d="M34.457 127.597v5.001a2.77 2.77 0 0 1-2.77 2.769h-46.765a2.77 2.77 0 0 1-2.77-2.769v-5.001c0-1.53 1.24-2.769 2.77-2.769h46.766a2.768 2.768 0 0 1 2.769 2.769Z"/>
    <path fill="#fff" d="M37.488 146.757v10.54H33.36v-10.54h4.13Zm36.246 0v10.54h-8.717v-10.54h8.717Z" opacity=".25"/>
  </g>
  <defs>
    <clipPath id="a">
      <path fill="#fff" d="M0 0h185v162.029H0z"/>
    </clipPath>
  </defs>
</svg>
