<svg xmlns="http://www.w3.org/2000/svg" width="167" height="220" fill="none" viewBox="0 0 167 220">
  <g clip-path="url(#a)">
    <path fill="#EA2B2B" d="M144.186 44.031c-10.795 0-19.547 8.753-19.547 19.548v30.082c0 10.797 8.752 19.548 19.547 19.548h13.741a5.808 5.808 0 0 0 5.807-5.808V63.579c0-10.795-8.751-19.548-19.548-19.548Z"/>
    <path stroke="#F49000" stroke-linecap="round" stroke-linejoin="round" stroke-width="11.979" d="M91.362 197.539c.707 3.117-.08 6.092-2.36 8.927"/>
    <path fill="#FF4B4B" d="M40.596 43.984h92.567c10.425 0 18.876 8.451 18.876 18.876v95.481c0 10.425-8.451 18.876-18.876 18.876H40.596c-10.425 0-18.876-8.451-18.876-18.876v-95.48c0-10.426 8.451-18.877 18.876-18.877Z"/>
    <path fill="#FF4B4B" d="M85.154 43.984H39.017c-10.551 0-19.104 9.033-19.104 20.176v92.882c0 11.143 8.553 20.176 19.104 20.176h46.137c10.551 0 19.104-9.033 19.104-20.176V64.16c0-11.143-8.553-20.176-19.103-20.176Z"/>
    <path fill="#1CB0F6" stroke="#FFDE00" stroke-width="4.356" d="m25.22 53.731 7.508-2.883a3.63 3.63 0 0 1 4.575 2.13l6.214 16.207a3.63 3.63 0 0 1-2.088 4.69L22.09 81.302V64.159c0-3.8 1.108-7.41 3.13-10.428Z"/>
    <path fill="#fff" stroke="#F49000" stroke-width="4.356" d="m71.943 77.032.004-.004c4.348-3.518 10.725-2.846 14.244 1.502 3.522 4.352 2.85 10.734-1.499 14.258l-7.03 5.696-.005.004c-4.348 3.519-10.725 2.847-14.243-1.5-3.522-4.352-2.851-10.735 1.498-14.26l7.031-5.696Z"/>
    <path fill="#EA2B2B" d="M121.269 61.541c0-9.696 7.86-17.557 17.557-17.557 9.696 0 17.557 7.86 17.557 17.557v98.119c0 9.697-7.861 17.557-17.557 17.557-9.697 0-17.557-7.86-17.557-17.557V61.541Z"/>
    <path fill="#CCF8F7" d="m149.017 109.787 11.598 2.678a7.622 7.622 0 0 1 5.713 9.142l-7.977 34.552a7.623 7.623 0 0 1-9.142 5.713l-11.599-2.678a7.623 7.623 0 0 1-5.713-9.143l7.977-34.551a7.623 7.623 0 0 1 9.143-5.713Z"/>
    <path fill="#47D7FF" d="M162.804 121.387c-7.593 3.289-12.671 5.25-15.236 5.881-2.195.542-4.16-.255-5.899-2.392a1.086 1.086 0 0 0-1.092-.373 1.08 1.08 0 0 0-.524.292 1.08 1.08 0 0 0-.29.525l-5.525 24.175a7.623 7.623 0 0 0 5.716 9.127l7.747 1.788a7.626 7.626 0 0 0 9.14-5.702l7.457-32.075a1.088 1.088 0 0 0-.905-1.324 1.09 1.09 0 0 0-.589.078Z"/>
    <path fill="#1899D6" d="m151.274 100.178 12.688 2.929a1.815 1.815 0 0 1 1.36 2.177l-.813 3.521a1.814 1.814 0 0 1-2.176 1.36l-12.689-2.929a1.815 1.815 0 0 1-1.36-2.177l.813-3.521a1.815 1.815 0 0 1 2.177-1.36Z"/>
    <path fill="#CCF8F7" d="m148.642 106.964 13.753 3.175a1.811 1.811 0 0 1-.814 3.529l-13.754-3.175a1.811 1.811 0 0 1 .815-3.529Z"/>
    <path fill="#78C800" d="M15.93 178.188c-8.597 0-15.566-7.163-15.566-16s6.97-16 15.566-16c8.597 0 15.566 7.163 15.566 16s-6.969 16-15.566 16Z"/>
    <path stroke="#FF4B4B" stroke-width="6.897" d="M27.886 141.359h14.463c8.801 0 15.936 7.135 15.936 15.937 0 8.801-7.135 15.936-15.936 15.936H27.886c-8.802 0-15.936-7.135-15.936-15.936 0-8.802 7.134-15.937 15.936-15.937Z"/>
    <path fill="#78C800" d="M87.154 87.939c-18.997 5.63-31.315 8.446-36.955 8.446-3.212 0-6.557-1.362-10.035-4.085-6.771-5.302-16.56-4.11-21.861 2.662a15.573 15.573 0 0 0-3.311 9.599v46.762c0 25.45 20.63 46.08 46.08 46.08 25.449 0 46.08-20.63 46.08-46.081v-48.453c0-8.6-6.972-15.572-15.573-15.572-1.498 0-2.988.216-4.425.642Z"/>
    <path fill="#8EE000" d="m63.156 164.551-11.616-.004c-.623 0-1.063.574-.87 1.135.923 2.694 3.61 4.556 6.68 4.556 3.069.001 5.757-1.858 6.679-4.552.192-.56-.25-1.135-.873-1.135Zm-19.186 0-11.616-.004c-.623 0-1.063.574-.87 1.135.923 2.694 3.611 4.556 6.68 4.556 3.07.001 5.757-1.858 6.679-4.552.192-.56-.25-1.135-.873-1.135Zm9.05 9.779-11.616-.004c-.623 0-1.064.575-.871 1.135.925 2.695 3.612 4.556 6.681 4.556 3.07.001 5.756-1.858 6.678-4.551.193-.561-.25-1.136-.872-1.136Z"/>
    <path stroke="#F49000" stroke-linecap="round" stroke-linejoin="round" stroke-width="11.979" d="M26.74 198.117c1.259 2.937 3.644 4.881 7.155 5.834"/>
    <path fill="#1CB0F6" d="M50.635.523h-8.953c-9.624 0-17.425 7.801-17.425 17.424v8.615c0 9.623 7.801 17.424 17.424 17.424H68.06V17.947c0-9.62-7.8-17.424-17.424-17.424Z"/>
    <path fill="#AA572A" d="M62.67 3.422h39.733c8.62 0 15.609 6.988 15.609 15.609v9.347c0 8.62-6.989 15.61-15.609 15.61H62.67c-8.62 0-15.61-6.99-15.61-15.61v-9.347c0-8.62 6.99-15.61 15.61-15.61Z"/>
    <path fill="#1CB0F6" d="M73.176.523h24.877c10.024 0 18.15 8.126 18.15 18.15v7.163c0 10.024-8.126 18.15-18.15 18.15H73.176c-10.024 0-18.15-8.126-18.15-18.15v-7.163c0-10.024 8.126-18.15 18.15-18.15Z"/>
    <path fill="#AA572A" d="M107.199 3.422h25.977c8.621 0 15.609 6.988 15.609 15.609v9.347c0 8.62-6.988 15.61-15.609 15.61h-25.977c-8.62 0-15.61-6.99-15.61-15.61v-9.347c0-8.62 6.99-15.61 15.61-15.61Z"/>
    <path fill="#1CB0F6" d="M118.064.523h21.622c9.823 0 17.787 7.964 17.787 17.787v7.89c0 9.823-7.964 17.786-17.787 17.786h-21.622c-9.823 0-17.787-7.963-17.787-17.787V18.31c0-9.823 7.964-17.787 17.787-17.787Z"/>
    <path fill="#0190D3" d="M141.588.523h2.444c9.022 0 16.335 7.314 16.335 16.335v10.793c0 9.022-7.313 16.335-16.335 16.335h-2.444c-9.021 0-16.335-7.313-16.335-16.335V16.858c0-9.021 7.314-16.335 16.335-16.335Z"/>
    <path fill="#EA2B2B" d="M159.628 145.344h-37.997v31.872h37.997a4.356 4.356 0 0 0 4.356-4.355V149.7a4.356 4.356 0 0 0-4.356-4.356Z"/>
    <path fill="#DF8A8A" d="M153.851 150.776a1.897 1.897 0 0 0-1.894 1.809l-.523 11.234a2.418 2.418 0 1 0 4.833 0l-.523-11.234a1.891 1.891 0 0 0-1.893-1.809Zm-21.967-63.33a1.895 1.895 0 0 0-1.893 1.807l-.523 11.236a2.431 2.431 0 0 0 .667 1.781 2.427 2.427 0 0 0 1.75.749 2.43 2.43 0 0 0 1.749-.749 2.417 2.417 0 0 0 .667-1.781l-.523-11.236a1.895 1.895 0 0 0-1.894-1.808Z"/>
    <path fill="#D8D8D8" d="M155.657 81.29h-24.61a1.09 1.09 0 0 0-1.089 1.088v1.806a1.09 1.09 0 0 0 1.089 1.089h24.61a1.088 1.088 0 0 0 1.089-1.09v-1.805a1.09 1.09 0 0 0-1.089-1.089Z" opacity=".551"/>
    <path fill="#89E219" d="m37.43 94.126 15.002 14.501c.833.742.463 1.978-.556 2.472-5.186 2.06-11.298.907-15.188-2.966-3.89-3.873-4.538-9.393-1.76-13.76.649-.907 1.668-.989 2.501-.247Z"/>
    <path fill="#89E219" fill-rule="evenodd" d="M50.394 106.814c5.464 4.944 15.096 4.944 21.116 0s-.927 28.674-.927 28.509c0 0-3.241-.082-9.724 0h-9.353c-4.353-22.247-4.723-31.805-1.112-28.509Z" clip-rule="evenodd"/>
    <path fill="#89E219" d="m29.187 97.595 14.632 14.584c.834.742.463 1.978-.555 2.472-5.186 2.06-11.299.906-15.188-2.966-3.89-3.873-4.538-9.394-1.667-13.76.555-.99 1.945-1.072 2.778-.33Z"/>
    <path fill="#89E219" fill-rule="evenodd" d="M36.04 101.625h.556c10.836 0 19.541 7.828 19.541 17.386v9.228c0 9.641-8.798 17.386-19.54 17.386h-.556c-10.836 0-19.541-7.828-19.541-17.386v-9.146c0-9.64 8.705-17.468 19.54-17.468Z" clip-rule="evenodd"/>
    <path fill="#89E219" d="m84.473 94.126-14.725 14.501c-.833.742-.463 1.978.556 2.472 5.186 2.06 11.298.907 15.188-2.966 3.89-3.873 4.538-9.393 1.667-13.76-.556-.907-1.945-.989-2.686-.247Z"/>
    <path fill="#89E219" d="m93 97.595-14.725 14.584c-.833.742-.463 1.978.556 2.472 5.186 2.06 11.299.906 15.188-2.966 3.89-3.873 4.538-9.394 1.667-13.76-.463-.99-1.852-1.072-2.686-.33Z"/>
    <path fill="#89E219" fill-rule="evenodd" d="M85.405 101.625h.555c10.836 0 19.541 7.828 19.541 17.386v9.228c0 9.641-8.798 17.386-19.54 17.386h-.464c-10.742 0-19.448-7.745-19.54-17.303l-.093-9.229c-.093-9.64 8.613-17.468 19.54-17.468Z" clip-rule="evenodd"/>
    <path fill="#F49000" fill-rule="evenodd" d="M61.137 128.32c3.797 0 6.946 2.802 6.946 6.18v1.978c0 3.378-3.149 6.179-6.946 6.179-3.797 0-6.946-2.801-6.946-6.179V134.5c0-3.378 3.15-6.18 6.946-6.18Z" clip-rule="evenodd"/>
    <path fill="#FFC200" d="M51.508 134.912c.833-3.79 4.908-6.592 9.724-6.592 4.538 0 8.52 2.884 9.353 6.592v.33c0 .247-.092.412-.37.329l-8.983 1.401h-.37l-8.984-1.401c-.278 0-.37-.082-.37-.329v-.33Z"/>
    <path fill="#FFDE00" d="M63.177 132.357c-.185 0-.277 0-.463-.083-1.204-.411-2.315-.411-3.334 0-.74.248-1.482-.082-1.76-.659-.277-.659.093-1.318.742-1.565 1.666-.577 3.426-.577 5.278 0 .741.247 1.112.906.834 1.565-.185.412-.741.742-1.297.742Z"/>
    <path fill="#fff" fill-rule="evenodd" d="M37.059 107.883c7.501 0 13.614 5.438 13.614 12.112v7.334c0 6.674-6.113 12.112-13.614 12.112s-13.614-5.438-13.614-12.112v-7.334c0-6.674 6.113-12.112 13.614-12.112Z" clip-rule="evenodd"/>
    <path fill="#4B4B4B" fill-rule="evenodd" d="M39.187 114.805c3.52 0 6.39 2.554 6.39 5.685v6.262c0 3.131-2.87 5.686-6.39 5.686-3.52 0-6.39-2.555-6.39-5.686v-6.262c0-3.131 2.87-5.685 6.39-5.685Z" clip-rule="evenodd"/>
    <path fill="#fff" d="M33.816 121.9c2.301 0 4.167-1.66 4.167-3.708s-1.865-3.708-4.167-3.708c-2.302 0-4.168 1.66-4.168 3.708s1.866 3.708 4.168 3.708Z"/>
    <path fill="#fff" fill-rule="evenodd" d="M84.938 107.883c7.501 0 13.614 5.438 13.614 12.112v7.334c0 6.674-6.113 12.112-13.614 12.112-7.502 0-13.614-5.438-13.614-12.112v-7.334c0-6.674 6.112-12.112 13.614-12.112Z" clip-rule="evenodd"/>
    <path fill="#4B4B4B" fill-rule="evenodd" d="M82.808 114.805c3.52 0 6.39 2.554 6.39 5.685v6.262c0 3.131-2.87 5.686-6.39 5.686-3.52 0-6.39-2.555-6.39-5.686v-6.262c0-3.131 2.87-5.685 6.39-5.685Z" clip-rule="evenodd"/>
    <path fill="#fff" d="M76.699 121.9c2.301 0 4.167-1.66 4.167-3.708S79 114.484 76.7 114.484c-2.302 0-4.168 1.66-4.168 3.708s1.866 3.708 4.168 3.708Z"/>
    <path stroke="#EA2B2B" stroke-width="6.897" d="M91.415 140.641h8.308c9.102 0 16.48 7.378 16.48 16.479 0 9.101-7.378 16.479-16.48 16.479h-8.308c-9.101 0-16.48-7.378-16.48-16.479 0-9.101 7.379-16.479 16.48-16.479Z"/>
    <path fill="#78C800" d="M96.837 181.017c-10.696 0-19.367-8.836-19.367-19.735 0-10.9 8.67-19.735 19.367-19.735 10.695 0 19.366 8.835 19.366 19.735 0 10.899-8.671 19.735-19.366 19.735Z"/>
    <path stroke="#E2E2E2" stroke-linecap="round" stroke-linejoin="round" stroke-width="7.267" d="M110.037 215.836H18.961"/>
  </g>
  <defs>
    <clipPath id="a">
      <path fill="#fff" d="M0 0h166.833v220H0z"/>
    </clipPath>
  </defs>
</svg>
