<svg xmlns="http://www.w3.org/2000/svg" width="144" height="180" fill="none" viewBox="0 0 144 180">
  <g clip-path="url(#a)">
    <path fill="#E619DF" d="M39.273 148.504c4.914-3.603 11.818-2.542 15.421 2.372 3.604 4.913 2.542 11.818-2.371 15.421l-8.238 6.041c-4.913 3.603-11.817 2.542-15.42-2.37-3.604-4.914-2.543-11.819 2.37-15.422l8.238-6.042Z"/>
    <path fill="#C128C1" fill-rule="evenodd" d="M36.776 150.336c3.318 4.888 2.196 11.565-2.607 15.087l-5.74 4.211c-3.319-4.888-2.196-11.565 2.607-15.088l5.74-4.21Z" clip-rule="evenodd"/>
    <path fill="#E619DF" d="M17.133 146.114c4.913-3.604 11.817-2.542 15.42 2.371 3.604 4.913 2.543 11.818-2.37 15.421l-8.238 6.042c-4.914 3.603-11.818 2.541-15.421-2.371-3.604-4.914-2.542-11.818 2.371-15.422l8.238-6.041Z"/>
    <path fill="url(#b)" d="M8.626 110.166 41.1 33.174c15.373-1.994 34.022 25.034 23.066 56.541-9.682 27.843-33.457 33.489-52.506 27.531-2.945-.921-4.234-4.237-3.034-7.08Z"/>
    <path fill="url(#c)" d="M95.471 12.348c-5.818-.862-29.618-20.837-57.09-8.13-10.422 4.82-15.424 13.497-16.987 26.447-1.385 11.476 3.287 23.147 6.905 35.662-4.558 14.39-7.543 24.416-2.7 37.075 8.858 23.162 37.095 47.294 74.768 33.829 56.669-20.254 40.275-90.446 35.966-105.96-4.31-15.514-13.891-22.585-21.863-21.938-7.973.646-13.181 3.877-18.999 3.015Z"/>
    <path fill="#1F66FB" fill-rule="evenodd" d="M37.825 122.724c7.324-2.345 15.596-6.978 23.763-16.016a2.645 2.645 0 1 0-3.926-3.547c-7.559 8.365-15.052 12.484-21.502 14.541-.71.226-1.408.428-2.094.608a62.806 62.806 0 0 0 3.76 4.414Z" clip-rule="evenodd"/>
    <path fill="#C7FFFE" fill-rule="evenodd" d="M135.431 38.038c-1.336-10.215-6.707-14.293-10.305-13.822-3.599.47-3.143 5.023-1.807 15.238.509 3.895.725 5.995.836 7.252 2.471 1.772 4.251 4.528 4.251 7.698-.62.192-1.3.356-2.025.493.69 1.516 1.542 3.047 2.503 4.159 2.684-3.24 5.964-5.31 8.267-6.386-.032-1.188-.147-2.556-.353-4.132l-1.367-10.5Z" clip-rule="evenodd"/>
    <path fill="#3C4DFF" fill-rule="evenodd" d="M124.156 46.712c1.18.847 2.203 1.92 2.95 3.153l.167-.023a5.035 5.035 0 0 0 4.281-5.691l-1.724-12.195a5.037 5.037 0 0 0-5.192-4.326 3.966 3.966 0 0 1-1.9 7.182 300.1 300.1 0 0 0 .581 4.648c.509 3.895.725 5.995.837 7.252Z" clip-rule="evenodd"/>
    <path fill="#C7FFFE" fill-rule="evenodd" d="M79.947 18.243c9.87-1.29 18.954 5.944 20.29 16.158l1.361 10.404c.851 6.511-1.65 12.661-6.133 16.6-6.462-4.854-16.81-10.75-29.624-12.026l-1.348-10.303c-1.336-10.215 5.583-19.542 15.454-20.833Z" clip-rule="evenodd"/>
    <path fill="#3C4DFF" fill-rule="evenodd" d="M81.132 34.335c3.105-.528 5.191-3.428 4.659-6.477a5.516 5.516 0 0 0-1.048-2.4 8.945 8.945 0 0 1 2.059-.611c4.695-.8 9.142 2.22 9.93 6.741l1.525 8.735c.79 4.522-2.377 8.836-7.073 9.635-4.695.8-9.142-2.219-9.931-6.741l-1.525-8.734-.013-.081c.463.035.938.014 1.417-.067Z" clip-rule="evenodd"/>
    <path fill="#0455FF" fill-rule="evenodd" d="M108.755 56.843a1.512 1.512 0 0 1 1.652 1.358c.642 6.563 2.368 10.97 4.713 13.029 1.117.98 2.395 1.45 3.892 1.378 1.542-.073 3.428-.727 5.671-2.222a1.513 1.513 0 0 1 1.677 2.515c-2.525 1.684-4.939 2.62-7.204 2.727-2.31.11-4.347-.65-6.03-2.126-3.254-2.855-5.07-8.275-5.728-15.007a1.512 1.512 0 0 1 1.357-1.652Z" clip-rule="evenodd"/>
    <path fill="#0455FF" d="M119.767 68.554c-3.825-.623-4.225-3.514-6.939-13.656h10.142c.222 1.69.845 6.895 1.157 9.12.375 2.678-1.068 5.072-4.36 4.536Z"/>
    <path fill="#C7FFFE" fill-rule="evenodd" d="M112.246 46.315c.604.576 1.533.997 2.83 1.052l.405.017c2.499.098 4.366.171 6.111 3.184.795 1.375 4.299 1.343 4.873-1.64-2.021-2.625-5.332-4.311-8.499-4.31-2.16 0-4.119.65-5.72 1.697Z" clip-rule="evenodd"/>
    <path fill="#0455FF" fill-rule="evenodd" d="M106.96 53.838a1.512 1.512 0 0 1 1.847-1.077c7.15 1.883 13.825 1.134 17.932.313a1.512 1.512 0 0 1 .593 2.965c-4.345.869-11.529 1.692-19.295-.354a1.513 1.513 0 0 1-1.077-1.847Z" clip-rule="evenodd"/>
    <path fill="#C7FFFE" fill-rule="evenodd" d="M62.815 7.693c-.838-.312-1.656-.338-2.493.172a1.512 1.512 0 1 1-1.573-2.582c1.822-1.11 3.65-.97 5.12-.424 1.419.528 2.571 1.453 3.265 2.07a1.512 1.512 0 1 1-2.009 2.26c-.606-.54-1.422-1.166-2.31-1.496Z" clip-rule="evenodd"/>
    <path fill="#1F66FB" fill-rule="evenodd" d="M112.807 10.652a1.512 1.512 0 0 1 2.079.5c1.886 3.08 2.437 5.933 1.496 8.17-.974 2.318-3.283 3.384-5.749 3.384a1.512 1.512 0 1 1 0-3.023c1.654 0 2.599-.668 2.962-1.532.396-.943.369-2.716-1.287-5.42a1.51 1.51 0 0 1 .499-2.079ZM60.209 5.304c.731.401 1 1.32.598 2.052-1.645 3-.83 6.673-.328 8.178l.369 1.108-.978.637c-.29.188-.817.694-1.46 1.581a18.962 18.962 0 0 0-1.871 3.28c-1.185 2.623-2.031 5.894-1.768 9.216.726 9.148 1.73 18.359 3.259 23.222.07.22.14.447.21.679.772 2.496 1.73 5.598 4.135 8.49 2.586 3.11 6.97 6.1 14.98 7.424 12.952 2.14 20.37-1.792 22.252-3.636a1.511 1.511 0 1 1 2.116 2.16c-2.742 2.686-11.222 6.712-24.86 4.459-8.609-1.423-13.69-4.719-16.813-8.474-2.81-3.379-3.931-7.03-4.694-9.513l-.21-.682c-1.651-5.253-2.67-14.829-3.389-23.89-.314-3.962.694-7.749 2.026-10.7.669-1.48 1.431-2.777 2.18-3.81.436-.602.895-1.152 1.354-1.6-.55-2.149-1.087-6.07.839-9.583.401-.732 1.32-1 2.053-.598Z" clip-rule="evenodd"/>
    <path fill="#0455FF" fill-rule="evenodd" d="M141.793 66.25c-.352.685-1.025 1.533-1.983 2.045-.995.531-2.457.789-4.543-.182a1.511 1.511 0 1 0-1.275 2.742c2.884 1.342 5.349 1.118 7.242.107.22-.117.43-.244.63-.378a123.98 123.98 0 0 0-.071-4.334Z" clip-rule="evenodd"/>
    <path fill="#C7FFFE" fill-rule="evenodd" d="M69.574 5.17c-.81-.221-1.198-.222-1.308-.201a1.512 1.512 0 0 1-.57-2.97c.83-.16 1.788.012 2.678.256.942.259 2.038.668 3.242 1.177 2.41 1.02 5.407 2.511 8.74 4.215 1.086.555 2.21 1.133 3.364 1.728 5.974 3.075 12.773 6.577 19.444 9.436 2.141.918 4.493.955 5.156.881a1.511 1.511 0 1 1 .334 3.006c-1.072.119-3.967.055-6.682-1.108-6.778-2.905-13.69-6.465-19.661-9.54-1.148-.59-2.26-1.164-3.33-1.71-3.34-1.707-6.247-3.151-8.543-4.124-1.15-.486-2.107-.837-2.864-1.045Z" clip-rule="evenodd"/>
    <path fill="#204AFF" d="m96.555 94.266 14.442.182c.774.01 1.292.898 1.024 1.755-1.292 4.114-4.731 6.923-8.547 6.875-3.816-.048-7.058-2.942-8.064-7.085-.209-.862.37-1.737 1.145-1.727Zm24.107.384 12.839-.415c.776-.026 1.312.835 1.057 1.701-1.221 4.162-3.537 6.931-7.363 7.06-3.825.13-6.568-2.488-7.649-6.572-.225-.85.34-1.748 1.116-1.774Zm-12.007 15.498 13.297.195c.775-.018 1.311.851 1.058 1.715-1.214 4.153-3.439 6.554-7.26 6.642-3.82.087-7.122-2.686-8.207-6.787-.227-.853.337-1.747 1.112-1.765Z" style="mix-blend-mode:overlay"/>
  </g>
  <defs>
    <radialGradient id="b" cx="0" cy="0" r="1" gradientTransform="rotate(119.366 50.49 41.964) scale(133.976 179.711)" gradientUnits="userSpaceOnUse">
      <stop stop-color="#26FF55"/>
      <stop offset=".57" stop-color="#268AFF"/>
      <stop offset=".988" stop-color="#FC55FF"/>
    </radialGradient>
    <radialGradient id="c" cx="0" cy="0" r="1" gradientTransform="rotate(119.366 50.491 41.964) scale(133.976 179.711)" gradientUnits="userSpaceOnUse">
      <stop stop-color="#26FF55"/>
      <stop offset=".57" stop-color="#268AFF"/>
      <stop offset=".988" stop-color="#FC55FF"/>
    </radialGradient>
    <clipPath id="a">
      <path fill="#fff" d="M0 0h143.077v180H0z"/>
    </clipPath>
  </defs>
</svg>
