<svg xmlns="http://www.w3.org/2000/svg" width="185" height="145" fill="none" viewBox="0 0 185 145">
  <g clip-path="url(#a)">
    <path fill="#F49000" fill-rule="evenodd" d="M62.965 137.27c0-4.081 3.33-7.411 7.411-7.411h11.6c4.081 0 7.411 3.33 7.411 7.411 0 4.082-3.33 7.412-7.411 7.412h-11.6c-4.082 0-7.411-3.33-7.411-7.412Zm32.008 0c0-4.081 3.33-7.411 7.411-7.411h11.6c4.081 0 7.411 3.33 7.411 7.411 0 4.082-3.33 7.412-7.411 7.412h-11.6c-4.082 0-7.411-3.33-7.411-7.412Z" clip-rule="evenodd"/>
    <path fill="#58CC02" d="M13.018 109.233 54.8 33.619c2.256-3.974 7.733-4.619 10.848-1.29C80.793 48.55 83.8 73.145 72.845 93.123c-10.956 19.978-33.404 30.397-55.208 26.1-4.511-.859-6.874-5.907-4.619-9.989Zm158.321-.002-41.782-75.615c-2.255-4.082-7.733-4.726-10.955-1.397-15.145 16.219-18.152 40.815-7.197 60.793 10.956 19.978 33.404 30.396 55.208 26.1 4.618-.752 6.981-5.8 4.726-9.881Z"/>
    <path fill="#58CC02" fill-rule="evenodd" d="M61.352 2.144c15.037 6.337 25.348 9.56 30.933 9.56 5.585 0 15.682-3.115 30.504-9.452 9.774-4.19 21.159.43 25.348 10.203.967 2.363 1.504 4.941 1.504 7.519v60.04c0 31.793-25.778 57.571-57.57 57.571-31.793-.107-57.571-25.778-57.571-57.57V19.867C34.5 9.233 43.093.64 53.833.64c2.578 0 5.049.537 7.519 1.503Z" clip-rule="evenodd"/>
    <path fill="#89E219" d="M87.774 98.28c.215-.753-.322-1.397-1.074-1.397H72.2c-.752 0-1.289.752-1.074 1.396 1.181 3.33 4.511 5.693 8.27 5.693 3.76 0 7.197-2.363 8.378-5.693Zm24.167-1.397h-14.5c-.752 0-1.29.752-1.074 1.396 1.181 3.33 4.511 5.693 8.27 5.693 3.759 0 7.196-2.363 8.378-5.693.215-.644-.322-1.396-1.074-1.396ZM99.267 109.02h-14.5c-.752 0-1.29.752-1.075 1.396 1.182 3.33 4.512 5.693 8.27 5.693 3.76 0 7.197-2.363 8.379-5.693.322-.644-.215-1.396-1.074-1.396ZM64.683 11.168l17.4 18.904c.966.966.537 2.578-.645 3.222-6.015 2.685-13.103 1.181-17.615-3.867-4.51-5.048-5.263-12.244-2.04-17.937.752-1.181 1.933-1.289 2.9-.322Z"/>
    <path fill="#89E219" fill-rule="evenodd" d="M79.72 27.71c6.338 6.444 17.508 6.444 24.489 0 6.982-6.445-1.074 37.377-1.074 37.162 0 0-3.759-.107-11.278 0H81.01c-5.048-29-5.477-41.459-1.288-37.163Z" clip-rule="evenodd"/>
    <path fill="#89E219" d="m55.126 15.682 16.97 19.011c.967.967.537 2.578-.645 3.222-6.014 2.686-13.103 1.182-17.614-3.866-4.511-5.048-5.263-12.245-1.934-17.937.645-1.29 2.256-1.397 3.223-.43Z"/>
    <path fill="#89E219" fill-rule="evenodd" d="M63.073 20.945h.645c12.566 0 22.662 10.204 22.662 22.663v12.03c0 12.567-10.203 22.663-22.662 22.663h-.645c-12.566 0-22.663-10.204-22.663-22.663V43.716c0-12.567 10.097-22.77 22.663-22.77Z" clip-rule="evenodd"/>
    <path fill="#89E219" d="m119.247 11.168-17.078 18.904c-.966.966-.537 2.578.645 3.222 6.014 2.685 13.103 1.181 17.614-3.867 4.512-5.048 5.263-12.244 1.934-17.937-.645-1.181-2.256-1.289-3.115-.322Z"/>
    <path fill="#89E219" d="m129.13 15.682-17.078 19.011c-.967.967-.537 2.578.644 3.222 6.015 2.686 13.104 1.182 17.615-3.866 4.511-5.048 5.263-12.245 1.934-17.937-.537-1.29-2.149-1.397-3.115-.43Z"/>
    <path fill="#89E219" fill-rule="evenodd" d="M120.32 20.945h.645c12.566 0 22.662 10.204 22.662 22.663v12.03c0 12.567-10.203 22.663-22.662 22.663h-.538c-12.459 0-22.555-10.096-22.663-22.556l-.107-12.03c-.107-12.566 9.989-22.77 22.663-22.77Z" clip-rule="evenodd"/>
    <path fill="#F49000" fill-rule="evenodd" d="M92.18 55.742c4.404 0 8.056 3.652 8.056 8.056v2.578c0 4.403-3.652 8.055-8.055 8.055-4.404 0-8.056-3.652-8.056-8.055v-2.578c0-4.404 3.652-8.056 8.056-8.056Z" clip-rule="evenodd"/>
    <path fill="#FFC200" d="M81.012 64.335c.966-4.941 5.692-8.593 11.278-8.593 5.262 0 9.881 3.76 10.848 8.593v.43c0 .322-.108.536-.43.429L92.29 67.02h-.43l-10.42-1.826c-.322 0-.43-.107-.43-.43v-.43Z"/>
    <path fill="#FFDE00" d="M94.545 61.009c-.215 0-.322 0-.537-.108-1.396-.537-2.685-.537-3.867 0a1.588 1.588 0 0 1-2.04-.859 1.588 1.588 0 0 1 .859-2.04c1.933-.753 3.974-.753 6.122 0 .86.322 1.289 1.18.967 2.04-.215.537-.86.967-1.504.967Z"/>
    <path fill="#fff" fill-rule="evenodd" d="M64.254 29.102c8.7 0 15.789 7.088 15.789 15.788v9.56c0 8.7-7.09 15.789-15.79 15.789s-15.788-7.09-15.788-15.79V44.89c0-8.7 7.089-15.788 15.789-15.788Z" clip-rule="evenodd"/>
    <path fill="#4B4B4B" fill-rule="evenodd" d="M66.724 38.125c4.081 0 7.41 3.33 7.41 7.411V53.7c0 4.082-3.329 7.411-7.41 7.411-4.082 0-7.412-3.33-7.412-7.41v-8.164c0-4.081 3.33-7.411 7.412-7.411Z" clip-rule="evenodd"/>
    <path fill="#fff" d="M60.493 47.362a4.833 4.833 0 1 0 0-9.667 4.833 4.833 0 0 0 0 9.667Z"/>
    <path fill="#fff" fill-rule="evenodd" d="M119.785 29.102c8.7 0 15.789 7.088 15.789 15.788v9.56c0 8.7-7.089 15.789-15.789 15.789s-15.789-7.09-15.789-15.79V44.89c0-8.7 7.089-15.788 15.789-15.788Z" clip-rule="evenodd"/>
    <path fill="#4B4B4B" fill-rule="evenodd" d="M117.313 38.125c4.082 0 7.412 3.33 7.412 7.411V53.7c0 4.082-3.33 7.411-7.412 7.411-4.081 0-7.411-3.33-7.411-7.41v-8.164c0-4.081 3.33-7.411 7.411-7.411Z" clip-rule="evenodd"/>
    <path fill="#fff" d="M110.224 47.362a4.833 4.833 0 1 0 0-9.667 4.833 4.833 0 0 0 0 9.667Z"/>
  </g>
  <defs>
    <clipPath id="a">
      <path fill="#fff" d="M11.945 0h161.111v145H11.945z"/>
    </clipPath>
  </defs>
</svg>
