<svg xmlns="http://www.w3.org/2000/svg" width="43" height="43" fill="none" viewBox="0 0 43 43">
  <path fill="#FF9600" d="M21.937 35.102c5.816 0 10.53-4.673 10.53-10.438 0-5.764-4.714-10.437-10.53-10.437-5.816 0-10.53 4.673-10.53 10.437 0 5.765 4.714 10.438 10.53 10.438Z"/>
  <path fill="#FF9600" fill-rule="evenodd" d="m23.488 9.569 6.672 8.561a1.834 1.834 0 0 1-1.447 2.962h-13.55a1.834 1.834 0 0 1-1.448-2.96l6.673-8.563a1.965 1.965 0 0 1 3.1 0Z" clip-rule="evenodd"/>
  <path fill="#FF9600" fill-rule="evenodd" d="m14.436 13.117 13.485 8.684a1.835 1.835 0 0 1-.843 3.37L13.39 26.293a1.835 1.835 0 0 1-1.984-1.826V14.77a1.967 1.967 0 0 1 3.03-1.653Z" clip-rule="evenodd"/>
  <path fill="#FFC800" d="M21.935 30.848c2.482 0 4.494-1.982 4.494-4.428 0-2.445-2.012-4.428-4.494-4.428-2.482 0-4.494 1.983-4.494 4.428 0 2.446 2.012 4.428 4.494 4.428Z"/>
  <path fill="#FFC800" fill-rule="evenodd" d="m22.598 20.017 2.835 3.618a.785.785 0 0 1-.618 1.27h-5.76a.786.786 0 0 1-.618-1.27l2.836-3.618a.843.843 0 0 1 1.325 0Z" clip-rule="evenodd"/>
</svg>
