<svg xmlns="http://www.w3.org/2000/svg" width="245" height="162" fill="none" viewBox="0 0 245 162">
  <g clip-path="url(#a)">
    <path fill="#5C5B5B" d="M215.219.148H29.38c-5.353 0-9.692 4.34-9.692 9.693v132.066a9.692 9.692 0 0 0 9.692 9.692h185.84a9.692 9.692 0 0 0 9.692-9.692V9.841c0-5.353-4.339-9.693-9.692-9.693Z"/>
    <path fill="#fff" d="M204.121 12.828H38.865a4.846 4.846 0 0 0-4.846 4.846v116.402a4.846 4.846 0 0 0 4.846 4.846h165.256a4.845 4.845 0 0 0 4.845-4.846V17.674a4.845 4.845 0 0 0-4.845-4.846Z"/>
    <path fill="#78C800" d="M183.749 33.727h-.888c-.98 0-1.775.794-1.775 1.775v2.663c0 .98.795 1.775 1.775 1.775h.888c.98 0 1.775-.794 1.775-1.775v-2.663c0-.98-.795-1.775-1.775-1.775Z"/>
    <path fill="#78C800" d="m183.988 28.335 4.762 5.715a.882.882 0 0 1 .122.944.893.893 0 0 1-.804.511h-9.524a.892.892 0 0 1-.804-.51.882.882 0 0 1 .122-.945l4.762-5.715a.894.894 0 0 1 .682-.32.883.883 0 0 1 .682.32Z"/>
    <path fill="#EA2B2B" d="M183.749 71.906h-.888c-.98 0-1.775-.795-1.775-1.775v-2.663c0-.98.795-1.776 1.775-1.776h.888c.98 0 1.775.795 1.775 1.776v2.663c0 .98-.795 1.775-1.775 1.775Z"/>
    <path fill="#EA2B2B" d="m183.988 77.298 4.762-5.715a.882.882 0 0 0 .122-.944.892.892 0 0 0-.804-.512h-9.524a.891.891 0 0 0-.804.512.882.882 0 0 0 .122.945l4.762 5.714a.894.894 0 0 0 .682.32.883.883 0 0 0 .682-.32Z"/>
    <path fill="#78C800" d="M183.749 110.953h-.888c-.98 0-1.775.795-1.775 1.775v2.664c0 .98.795 1.775 1.775 1.775h.888c.98 0 1.775-.795 1.775-1.775v-2.664c0-.98-.795-1.775-1.775-1.775Z"/>
    <path fill="#78C800" d="m183.988 105.561 4.762 5.715a.886.886 0 0 1-.205 1.317.887.887 0 0 1-.477.139h-9.524a.887.887 0 0 1-.682-1.456l4.762-5.715a.89.89 0 0 1 1.364 0Z"/>
    <path fill="#2D2D2D" d="M64.845 25.742a6.732 6.732 0 0 1 6.406 4.665l3.975 12.316a3.041 3.041 0 0 1-2.894 3.973H57.181a3.04 3.04 0 0 1-2.885-4l4.098-12.302a6.799 6.799 0 0 1 6.45-4.652Z"/>
    <path fill="#8B4824" d="M72.441 39.075c1.418 0 2.567-1.19 2.567-2.659 0-1.468-1.15-2.658-2.567-2.658-1.417 0-2.566 1.19-2.566 2.658 0 1.469 1.149 2.659 2.566 2.659Zm-15.367 0c1.417 0 2.566-1.19 2.566-2.659 0-1.468-1.149-2.658-2.566-2.658-1.417 0-2.566 1.19-2.566 2.658 0 1.469 1.149 2.659 2.566 2.659Z"/>
    <path fill="#A56644" d="M64.757 27.297a6.616 6.616 0 0 1 6.615 6.616v4.358a6.616 6.616 0 1 1-13.231 0v-4.358a6.616 6.616 0 0 1 6.616-6.616Z"/>
    <path fill="#fff" stroke="#fff" stroke-linecap="round" stroke-linejoin="round" stroke-width=".444" d="M66.675 38.832c-1.053-.126-1.821-.28-2.296-.46-.474-.18-1.126-.562-1.948-1.146l-.24-.171-.217.618a2.606 2.606 0 0 0 1.537 3.297 2.488 2.488 0 0 0 3.208-1.447l.021-.057.21-.601-.275-.033Z"/>
    <path fill="#2D2D2D" d="m68.637 26.986-1.047 2.416a7.237 7.237 0 0 1-6.641 4.36H57.14l1.122-3.36a6.82 6.82 0 0 1 6.468-4.66 6.74 6.74 0 0 1 3.906 1.244Z"/>
    <path fill="#CD7C60" d="M56.901 75.624c-1.172 0-2.123-.984-2.123-2.199 0-1.214.95-2.198 2.123-2.198 1.172 0 2.122.984 2.122 2.198 0 1.215-.95 2.2-2.122 2.2Z"/>
    <path fill="#DB8E73" d="M64.51 65.281a6.865 6.865 0 0 0-6.866 6.866v3.6a6.865 6.865 0 1 0 13.732 0v-3.6a6.865 6.865 0 0 0-6.866-6.866Z"/>
    <path fill="#B4654A" d="M65.63 74.336h-1.997v1.035h1.997v-1.035Z"/>
    <path fill="#fff" d="M60.387 72.201a1.748 1.748 0 0 1 3.496 0v1.937a1.748 1.748 0 1 1-3.496 0V72.2Z"/>
    <path fill="#4B4B4B" d="M61.638 72.5a.75.75 0 1 1 1.499 0v1.347a.75.75 0 1 1-1.499 0v-1.348Z"/>
    <path fill="#fff" d="M68.879 72.201a1.748 1.748 0 1 0-3.496 0v1.937a1.748 1.748 0 1 0 3.496 0V72.2Z"/>
    <path fill="#4B4B4B" d="M67.627 72.5a.75.75 0 1 0-1.498 0v1.347a.75.75 0 1 0 1.498 0v-1.348Z"/>
    <path fill="#DB8E73" d="M61.636 79.246c-1.517 0-2.746-1.274-2.746-2.845 0-1.572 1.23-2.846 2.746-2.846 1.517 0 2.747 1.274 2.747 2.846 0 1.571-1.23 2.846-2.747 2.846Zm5.993 0c-1.517 0-2.747-1.274-2.747-2.845 0-1.572 1.23-2.846 2.746-2.846 1.517 0 2.747 1.274 2.747 2.846 0 1.571-1.23 2.846-2.746 2.846Z"/>
    <path fill="#B4654A" d="M65.256 75.523v-2.899a.75.75 0 1 0-1.498 0v2.9a.749.749 0 1 0 1.498 0Z"/>
    <path fill="#B4654A" d="M64.172 76.663h.677c.572 0 1.034-.462 1.034-1.033v-.002c0-.572-.462-1.034-1.034-1.034h-.678c-.57 0-1.034.462-1.034 1.034v.002c0 .57.464 1.033 1.035 1.033Z"/>
    <path fill="#FFD900" d="M60.316 65.273c3.237-2.355 7.714-2.101 10.813.691 3.101 2.793 3.966 7.35 2.165 11a.52.52 0 0 1-.822.15L60.286 66.14c-.263-.238-.248-.662.03-.865Z"/>
    <path fill="#fff" stroke="#fff" stroke-linecap="round" stroke-linejoin="round" stroke-width=".444" d="M64.693 77.513c-.733-.092-1.267-.202-1.595-.325-.327-.124-.781-.386-1.355-.787l-.24-.167-.162.462a1.89 1.89 0 0 0 1.116 2.393 1.817 1.817 0 0 0 2.339-1.059l.014-.038.156-.446-.273-.033Z"/>
    <path fill="#FFD900" d="M61.22 69.8c-1.721-.429-2.954-2.023-2.954-3.874 0-1.85 1.233-3.445 2.956-3.873a.237.237 0 0 1 .29.236v7.275a.237.237 0 0 1-.29.236h-.001Z"/>
    <path fill="#CD7C60" d="M57.53 75.624c-1.172 0-2.123-.984-2.123-2.199 0-1.214.95-2.198 2.123-2.198 1.172 0 2.122.984 2.122 2.198 0 1.215-.95 2.2-2.122 2.2Z"/>
    <path fill="#DB8E73" d="M64.51 65.281a6.865 6.865 0 0 0-6.866 6.866v4.118a6.866 6.866 0 0 0 13.732 0v-4.118a6.865 6.865 0 0 0-6.866-6.866Z"/>
    <path fill="#DB8E73" d="M61.636 79.246c-1.517 0-2.746-1.274-2.746-2.845 0-1.572 1.23-2.846 2.746-2.846 1.517 0 2.747 1.274 2.747 2.846 0 1.571-1.23 2.846-2.747 2.846Zm5.993 0c-1.517 0-2.747-1.274-2.747-2.845 0-1.572 1.23-2.846 2.746-2.846 1.517 0 2.747 1.274 2.747 2.846 0 1.571-1.23 2.846-2.746 2.846Z"/>
    <path stroke="#B4654A" stroke-linecap="round" stroke-width="1.292" d="M62.262 77.875a3.165 3.165 0 0 0 4.589 0"/>
    <path fill="#FFD900" d="M59.59 64.553c3.453-2.526 8.209-2.28 11.489.674 3.28 2.954 4.176 7.8 2.242 11.694a.553.553 0 0 1-.873.166L59.554 65.473a.598.598 0 0 1 .036-.92Z"/>
    <path fill="#A0563C" d="M72.555 114.794c1.417 0 2.566-1.191 2.566-2.659 0-1.468-1.15-2.658-2.566-2.658-1.418 0-2.567 1.19-2.567 2.658s1.15 2.659 2.567 2.659Zm-15.84 0c1.417 0 2.566-1.191 2.566-2.659 0-1.468-1.149-2.658-2.566-2.658-1.418 0-2.567 1.19-2.567 2.658s1.15 2.659 2.567 2.659Z"/>
    <path fill="#3D3D3D" d="M59.463 99.648h10.344a2.068 2.068 0 0 1 2.068 2.069v7.503h-14.48v-7.503a2.069 2.069 0 0 1 2.068-2.069Z"/>
    <path fill="#C6775C" d="M68.773 105.078h-8.276a3.1 3.1 0 0 0-3.102 3.102v5.57a7.108 7.108 0 0 0 7.108 7.108h.264a7.109 7.109 0 0 0 7.108-7.108v-5.57a3.098 3.098 0 0 0-1.915-2.866 3.1 3.1 0 0 0-1.187-.236Z"/>
    <path fill="#fff" stroke="#fff" stroke-linecap="round" stroke-linejoin="round" stroke-width=".444" d="M66.675 114.886c-1.054-.126-1.822-.28-2.297-.46-.474-.18-1.125-.562-1.947-1.145l-.24-.172-.217.618a2.606 2.606 0 0 0 1.536 3.297 2.483 2.483 0 0 0 2.694-.623 2.48 2.48 0 0 0 .514-.823l.021-.059.21-.601-.274-.032Z"/>
    <path fill="#C1C9CB" d="M1.616 147.008h241.369a1.618 1.618 0 0 1 1.616 1.616v5.658a7.273 7.273 0 0 1-7.271 7.275H7.27A7.273 7.273 0 0 1 0 154.282v-5.658a1.613 1.613 0 0 1 1.616-1.616Z"/>
    <path fill="#fff" d="M271.629-19.531v134.448L43.496-19.531H271.63Z" opacity=".25"/>
    <path stroke="#FFC800" stroke-width="1.775" d="M97.5 40.364 108.13 33l10.629 7.985 10.63-13.032 10.629 9.498 10.63-6.391"/>
    <path fill="#fff" stroke="#FFC800" stroke-width="1.775" d="M106.965 36.392a2.219 2.219 0 1 0 0-4.438 2.219 2.219 0 0 0 0 4.438Zm-11.539 6.21a2.22 2.22 0 1 0 0-4.438 2.22 2.22 0 0 0 0 4.438Zm22.192.891a2.22 2.22 0 1 0 0-4.439 2.22 2.22 0 0 0 0 4.44Zm11.539-12.43a2.22 2.22 0 1 0 0-4.439 2.22 2.22 0 0 0 0 4.44Zm10.652 8.875a2.219 2.219 0 1 0 0-4.437 2.219 2.219 0 0 0 0 4.437Zm11.543-7.101a2.219 2.219 0 1 0 0-4.438 2.219 2.219 0 0 0 0 4.438Z"/>
    <path stroke="#FFC800" stroke-width="1.775" d="m97.5 114.043 10.63-7.364 10.629 7.986 10.63-13.032 10.629 9.498 10.63-6.391"/>
    <path fill="#fff" stroke="#FFC800" stroke-width="1.775" d="M106.965 110.071a2.218 2.218 0 1 0 .001-4.437 2.218 2.218 0 0 0-.001 4.437Zm-11.539 6.211a2.219 2.219 0 1 0 .001-4.437 2.219 2.219 0 0 0 0 4.437Zm22.192.891a2.22 2.22 0 1 0-.001-4.44 2.22 2.22 0 0 0 .001 4.44Zm11.539-12.43a2.219 2.219 0 1 0 0-4.438 2.219 2.219 0 0 0 0 4.438Zm10.652 8.875a2.218 2.218 0 1 0 .001-4.437 2.218 2.218 0 0 0-.001 4.437Zm11.543-7.101a2.22 2.22 0 1 0 0-4.438 2.22 2.22 0 0 0 0 4.438Z"/>
    <path stroke="#FFC800" stroke-width="1.775" d="m97.5 67.89 10.63 2.4 10.629 3.548 10.63-4.155 10.629 5.06 10.63 2.485"/>
    <path fill="#fff" stroke="#FFC800" stroke-width="1.775" d="M106.965 71.9a2.219 2.219 0 1 0 0-4.438 2.219 2.219 0 0 0 0 4.437Zm-11.539-3.547a2.22 2.22 0 1 0 0-4.439 2.22 2.22 0 0 0 0 4.439Zm22.192 7.992a2.22 2.22 0 1 0 0-4.44 2.22 2.22 0 0 0 0 4.44Zm11.539-4.445a2.22 2.22 0 1 0 0-4.44 2.22 2.22 0 0 0 0 4.44Zm10.652 5.328a2.219 2.219 0 1 0 0-4.438 2.219 2.219 0 0 0 0 4.438Zm11.543 2.663a2.219 2.219 0 1 0 0-4.437 2.219 2.219 0 0 0 0 4.438Z"/>
  </g>
  <defs>
    <clipPath id="a">
      <path fill="#fff" d="M0 0h245v161.558H0z"/>
    </clipPath>
  </defs>
</svg>
