<svg xmlns="http://www.w3.org/2000/svg" width="43" height="43" fill="none" viewBox="0 0 43 43">
  <path fill="#9069CD" fill-rule="evenodd" d="M10.478 20.62c0-6.215 5.038-11.253 11.253-11.253s11.253 5.038 11.253 11.253v.341a6.107 6.107 0 0 1-2.676 11.597H13.017a6.107 6.107 0 0 1-2.539-11.662v-.276Z" clip-rule="evenodd"/>
  <path fill="#F3AD6D" fill-rule="evenodd" d="M13.028 26.18a3.518 3.518 0 0 1 .084-6.916 8.432 8.432 0 0 1 16.646 0 3.518 3.518 0 0 1 .084 6.916 8.43 8.43 0 0 1-16.813 0Z" clip-rule="evenodd"/>
  <path fill="#BF8034" fill-rule="evenodd" d="M18.574 20.006a1.03 1.03 0 0 1 2.059 0v2.744a1.03 1.03 0 0 1-2.059 0v-2.744Zm3.566 0a1.03 1.03 0 0 1 2.059 0v2.744a1.03 1.03 0 0 1-2.058 0v-2.744Z" clip-rule="evenodd"/>
  <path fill="#fff" d="M18.574 25.32h5.778c.358 0 .648.29.648.648v.336a3.537 3.537 0 1 1-7.074 0v-.336c0-.358.29-.648.648-.648Z"/>
  <path fill="#9069CD" fill-rule="evenodd" d="m24.077 11.96.483.572v1.935l-2.502 2.593-3.513 1.847-3.908.66h-2.239v-1.188l1.274-2.616 1.756-2.263 3.82-1.89h3.292l1.537.35Z" clip-rule="evenodd"/>
  <path stroke="#9069CD" stroke-width="1.857" d="M10.832 19.93h2.935c3.637-.025 9.427-.542 11.314-7.2.096-.39.19-.842.278-1.355"/>
</svg>
